Coordinates
version=1
nRows=9
nColumns=24
inDegrees=yes

Units are S.I. units (second, meters, Newtons, ...)
Angles are in degrees.

endheader
time	pelvis_tilt	pelvis_list	pelvis_rotation	pelvis_tx	pelvis_ty	pelvis_tz	hip_flexion_r	hip_adduction_r	hip_rotation_r	knee_angle_r	ankle_angle_r	subtalar_angle_r	mtp_angle_r	hip_flexion_l	hip_adduction_l	hip_rotation_l	knee_angle_l	ankle_angle_l	subtalar_angle_l	mtp_angle_l	lumbar_extension	lumbar_bending	lumbar_rotation
      3.20000000	     57.21800593	      4.39048026	     -4.39365874	      1.28659948	      1.04429456	     -0.28756337	     23.42157916	     -5.60652270	     -2.14365339	     -9.42494220	    -29.24177179	      0.00000000	      0.00000000	     13.87925241	    -11.19947368	     -5.82284932	    -63.63601855	    -14.06578395	      0.00000000	      0.00000000	      0.00000000	      0.00000000	      0.00000000
      3.21000000	     57.21774712	      4.39142376	     -4.39164991	      1.28660479	      1.04428982	     -0.28756398	     23.42043408	     -5.60654962	     -2.14430107	     -9.42205703	    -29.23983566	      0.00000000	      0.00000000	     13.88094223	    -11.19493530	     -5.82011812	    -63.64082991	    -14.06365452	      0.00000000	      0.00000000	      0.00000000	      0.00000000	      0.00000000
      3.22000000	     57.21615166	      4.39350456	     -4.38775342	      1.28661321	      1.04429230	     -0.28756099	     23.42010316	     -5.60739784	     -2.14509651	     -9.41898525	    -29.23823713	      0.00000000	      0.00000000	     13.88374961	    -11.19100728	     -5.81495143	    -63.64519182	    -14.06331549	      0.00000000	      0.00000000	      0.00000000	      0.00000000	      0.00000000
      3.23000000	     57.21428212	      4.39604627	     -4.38318229	      1.28661193	      1.04429525	     -0.28756031	     23.42038978	     -5.60865061	     -2.14659022	     -9.41720556	    -29.23687841	      0.00000000	      0.00000000	     13.88720574	    -11.18835164	     -5.80836166	    -63.64852924	    -14.06461702	      0.00000000	      0.00000000	      0.00000000	      0.00000000	      0.00000000
      3.24000000	     57.21322643	      4.39816681	     -4.37895586	      1.28660280	      1.04429636	     -0.28756347	     23.42115392	     -5.60982619	     -2.14886920	     -9.41779813	    -29.23576220	      0.00000000	      0.00000000	     13.89061488	    -11.18700571	     -5.80193842	    -63.65049987	    -14.06705024	      0.00000000	      0.00000000	      0.00000000	      0.00000000	      0.00000000
      3.25000000	     57.21355204	      4.39910090	     -4.37556800	      1.28659486	      1.04429739	     -0.28756718	     23.42225231	     -5.61042663	     -2.15154227	     -9.42114056	    -29.23495357	      0.00000000	      0.00000000	     13.89292721	    -11.18657962	     -5.79725928	    -63.65123246	    -14.06995208	      0.00000000	      0.00000000	      0.00000000	      0.00000000	      0.00000000
      3.26000000	     57.21527344	      4.39854282	     -4.37320188	      1.28658919	      1.04429890	     -0.28757101	     23.42340188	     -5.60995817	     -2.15397427	     -9.42683854	    -29.23447899	      0.00000000	      0.00000000	     13.89314702	    -11.18669623	     -5.79519484	    -63.65123882	    -14.07273859	      0.00000000	      0.00000000	      0.00000000	      0.00000000	      0.00000000
      3.27000000	     57.21813773	      4.39674796	     -4.37196776	      1.28658214	      1.04429789	     -0.28757691	     23.42413019	     -5.60805345	     -2.15565739	     -9.43387149	    -29.23425737	      0.00000000	      0.00000000	     13.89084961	    -11.18727782	     -5.79559037	    -63.65113230	    -14.07507170	      0.00000000	      0.00000000	      0.00000000	      0.00000000	      0.00000000
      3.28000000	     57.22179417	      4.39432528	     -4.37195610	      1.28657301	      1.04429205	     -0.28758406	     23.42387490	     -5.60467488	     -2.15653017	     -9.44089550	    -29.23412384	      0.00000000	      0.00000000	     13.88632558	    -11.18856657	     -5.79744614	    -63.65139087	    -14.07690885	      0.00000000	      0.00000000	      0.00000000	      0.00000000	      0.00000000
